<?xml version="1.0" encoding="UTF-8" standalone="no"?>
<!-- Created with Inkscape (http://www.inkscape.org/) -->

<svg
   xmlns:dc="http://purl.org/dc/elements/1.1/"
   xmlns:cc="http://creativecommons.org/ns#"
   xmlns:rdf="http://www.w3.org/1999/02/22-rdf-syntax-ns#"
   xmlns:svg="http://www.w3.org/2000/svg"
   xmlns="http://www.w3.org/2000/svg"
   xmlns:sodipodi="http://sodipodi.sourceforge.net/DTD/sodipodi-0.dtd"
   xmlns:inkscape="http://www.inkscape.org/namespaces/inkscape"
   version="1.1"
   width="12"
   height="12"
   id="svg4460"
   inkscape:version="0.91 r13725"
   sodipodi:docname="kirkebygg-12.svg">
  <sodipodi:namedview
     pagecolor="#ffffff"
     bordercolor="#666666"
     borderopacity="1"
     objecttolerance="10"
     gridtolerance="10"
     guidetolerance="10"
     inkscape:pageopacity="0"
     inkscape:pageshadow="2"
     inkscape:window-width="909"
     inkscape:window-height="744"
     id="namedview11"
     showgrid="false"
     inkscape:zoom="13.906433"
     inkscape:cx="14.025392"
     inkscape:cy="14.459718"
     inkscape:window-x="0"
     inkscape:window-y="0"
     inkscape:window-maximized="0"
     inkscape:current-layer="svg4460"
     fit-margin-top="0"
     fit-margin-left="0"
     fit-margin-right="0"
     fit-margin-bottom="0" />
  <defs
     id="defs4462" />
  <metadata
     id="metadata4465">
    <rdf:RDF>
      <cc:Work
         rdf:about="">
        <dc:format>image/svg+xml</dc:format>
        <dc:type
           rdf:resource="http://purl.org/dc/dcmitype/StillImage" />
        <dc:title></dc:title>
      </cc:Work>
    </rdf:RDF>
  </metadata>
  <g
     id="g4192"
     transform="matrix(0.5,0,0,0.4851734,0,-1.4305115e-5)">
    <rect
       style="visibility:hidden;fill:none;stroke:none"
       id="canvas"
       y="0"
       x="0"
       height="24"
       width="24" />
    <g
       id="g4187">
      <g
         transform="translate(36.5,-1109.6588)"
         id="g21910">
        <path
           style="color:#000000;display:inline;overflow:visible;visibility:visible;opacity:0.3;fill:none;stroke:#ffffff;stroke-width:4.06065845;stroke-linecap:butt;stroke-linejoin:miter;stroke-miterlimit:4;stroke-dasharray:none;stroke-dashoffset:0;stroke-opacity:1;marker:none;enable-background:accumulate"
           d="m 12,3.7460938 c -0.461667,0 -0.745042,0.3704312 -0.75,0.8320312 l 0,2.1679688 -3,0 0,1.5 3,0 0,5.4570312 -3.1875,0 c -0.311625,0 -0.5625,0.2509 -0.5625,0.5625 l 0,7.875 c 0,0.3116 0.250875,0.5625 0.5625,0.5625 l 7.875,0 c 0.311625,0 0.5625,-0.2509 0.5625,-0.5625 l 0,-7.875 c 0,-0.3116 -0.250875,-0.5625 -0.5625,-0.5625 l -3.1875,0 0,-5.4570312 3,0 0,-1.5 -3,0 0,-2.1660157 c 0,-0.4616 -0.288333,-0.8339843 -0.75,-0.8339843 z"
           transform="translate(-36.5,1109.6588)"
           id="path17399"
           inkscape:connector-curvature="0" />
        <path
           style="color:#000000;display:inline;overflow:visible;visibility:visible;fill:#444444;fill-opacity:1;stroke:none;stroke-width:2;marker:none;enable-background:accumulate"
           d="m 12,3.7460938 c -0.461667,0 -0.745042,0.3704312 -0.75,0.8320312 l 0,2.1679688 -3,0 0,1.5 3,0 0,5.4570312 -3.1875,0 c -0.311625,0 -0.5625,0.2509 -0.5625,0.5625 l 0,7.875 c 0,0.3116 0.250875,0.5625 0.5625,0.5625 l 7.875,0 c 0.311625,0 0.5625,-0.2509 0.5625,-0.5625 l 0,-7.875 c 0,-0.3116 -0.250875,-0.5625 -0.5625,-0.5625 l -3.1875,0 0,-5.4570312 3,0 0,-1.5 -3,0 0,-2.1660157 c 0,-0.4616 -0.288333,-0.8339843 -0.75,-0.8339843 z"
           transform="translate(-36.5,1109.6588)"
           id="rect11290-8"
           inkscape:connector-curvature="0" />
      </g>
    </g>
  </g>
</svg>
