<?xml version="1.0" encoding="UTF-8" standalone="no"?>
<!-- Created with Inkscape (http://www.inkscape.org/) -->

<svg
   xmlns:dc="http://purl.org/dc/elements/1.1/"
   xmlns:cc="http://creativecommons.org/ns#"
   xmlns:rdf="http://www.w3.org/1999/02/22-rdf-syntax-ns#"
   xmlns:svg="http://www.w3.org/2000/svg"
   xmlns="http://www.w3.org/2000/svg"
   xmlns:sodipodi="http://sodipodi.sourceforge.net/DTD/sodipodi-0.dtd"
   xmlns:inkscape="http://www.inkscape.org/namespaces/inkscape"
   version="1.1"
   width="24"
   height="24"
   id="svg4460"
   inkscape:version="0.91 r13725"
   sodipodi:docname="kirkebygg-24.svg">
  <sodipodi:namedview
     pagecolor="#ffffff"
     bordercolor="#666666"
     borderopacity="1"
     objecttolerance="10"
     gridtolerance="10"
     guidetolerance="10"
     inkscape:pageopacity="0"
     inkscape:pageshadow="2"
     inkscape:window-width="909"
     inkscape:window-height="744"
     id="namedview11"
     showgrid="false"
     inkscape:zoom="13.906433"
     inkscape:cx="13.881574"
     inkscape:cy="14.103867"
     inkscape:window-x="0"
     inkscape:window-y="0"
     inkscape:window-maximized="0"
     inkscape:current-layer="svg4460" />
  <defs
     id="defs4462" />
  <metadata
     id="metadata4465">
    <rdf:RDF>
      <cc:Work
         rdf:about="">
        <dc:format>image/svg+xml</dc:format>
        <dc:type
           rdf:resource="http://purl.org/dc/dcmitype/StillImage" />
        <dc:title />
      </cc:Work>
    </rdf:RDF>
  </metadata>
  <g
     id="g4192">
    <rect
       style="fill:none;stroke:none;visibility:hidden"
       id="canvas"
       y="0"
       x="0"
       height="24"
       width="24" />
    <g
       id="g4187">
      <g
         transform="translate(36.5,-1109.6588)"
         id="g21910">
        <path
           style="color:#000000;display:inline;overflow:visible;visibility:visible;opacity:0.3;fill:none;stroke:#ffffff;stroke-width:2;stroke-linecap:butt;stroke-linejoin:miter;stroke-miterlimit:4;stroke-dasharray:none;stroke-dashoffset:0;stroke-opacity:1;marker:none;enable-background:accumulate"
           d="M 12 3.7460938 C 11.538333 3.7460938 11.254958 4.116525 11.25 4.578125 L 11.25 6.7460938 L 8.25 6.7460938 L 8.25 8.2460938 L 11.25 8.2460938 L 11.25 13.703125 L 8.0625 13.703125 C 7.750875 13.703125 7.5 13.954025 7.5 14.265625 L 7.5 22.140625 C 7.5 22.452225 7.750875 22.703125 8.0625 22.703125 L 15.9375 22.703125 C 16.249125 22.703125 16.5 22.452225 16.5 22.140625 L 16.5 14.265625 C 16.5 13.954025 16.249125 13.703125 15.9375 13.703125 L 12.75 13.703125 L 12.75 8.2460938 L 15.75 8.2460938 L 15.75 6.7460938 L 12.75 6.7460938 L 12.75 4.5800781 C 12.75 4.1184781 12.461667 3.7460938 12 3.7460938 z "
           transform="translate(-36.5,1109.6588)"
           id="path17399" />
        <path
           style="color:#000000;display:inline;overflow:visible;visibility:visible;fill:#444444;fill-opacity:1;stroke:none;stroke-width:2;marker:none;enable-background:accumulate"
           d="M 12 3.7460938 C 11.538333 3.7460938 11.254958 4.116525 11.25 4.578125 L 11.25 6.7460938 L 8.25 6.7460938 L 8.25 8.2460938 L 11.25 8.2460938 L 11.25 13.703125 L 8.0625 13.703125 C 7.750875 13.703125 7.5 13.954025 7.5 14.265625 L 7.5 22.140625 C 7.5 22.452225 7.750875 22.703125 8.0625 22.703125 L 15.9375 22.703125 C 16.249125 22.703125 16.5 22.452225 16.5 22.140625 L 16.5 14.265625 C 16.5 13.954025 16.249125 13.703125 15.9375 13.703125 L 12.75 13.703125 L 12.75 8.2460938 L 15.75 8.2460938 L 15.75 6.7460938 L 12.75 6.7460938 L 12.75 4.5800781 C 12.75 4.1184781 12.461667 3.7460938 12 3.7460938 z "
           transform="translate(-36.5,1109.6588)"
           id="rect11290-8" />
      </g>
    </g>
  </g>
</svg>
